<svg stroke="currentColor" fill="currentColor" stroke-width="0" width="1em" height="1em" viewBox="0 0 11 15"  xmlns="http://www.w3.org/2000/svg">
    <path d="M6.72086 0.948013L5.66314 6.50529L9.49494 6.51818L4.27916 14.0519L5.33689 7.93801L1.50533 7.92465L6.72086 0.948013ZM6.72158 0.0105273C6.69627 0.0105273 6.67097 0.0114502 6.64612 0.0133105C6.48065 0.0266846 6.37095 0.0819971 6.24089 0.169419C6.16765 0.218248 6.10162 0.277102 6.04472 0.344263C6.02763 0.36442 6.01151 0.385381 5.99642 0.407075L0.743375 7.35934C0.535953 7.64364 0.505484 8.01889 0.664859 8.33248C0.824 8.64607 1.1458 8.84482 1.49853 8.8474L4.20462 8.86709L3.35384 13.8797C3.27298 14.3104 3.50267 14.7398 3.90697 14.9128C4.02446 14.9633 4.15102 14.9893 4.27891 14.9892C4.57352 14.9892 4.81563 14.8514 4.99728 14.6025L10.2569 7.06872C10.4643 6.7844 10.4946 6.4087 10.3354 6.09558C10.1763 5.78198 9.85447 5.58322 9.50173 5.58065L6.79564 5.57597L7.63728 1.16854C7.65512 1.09639 7.66409 1.02233 7.66401 0.947998C7.66401 0.440811 7.26017 0.027373 6.75486 0.0109668C6.74362 0.010498 6.73259 0.010498 6.72159 0.010498L6.72158 0.0105273Z"/>
</svg>